<svg id="flat" height="512" viewBox="0 0 512 512" width="512" xmlns="http://www.w3.org/2000/svg"><path d="m471.99938 216.35414a23.90521 23.90521 0 0 1 -23.99938 23.64586h-152v-24l32-10.67 16-5.33 5.22381-26.11907a32 32 0 0 1 14.9147-21.16405l11.86149-7.11688 23.27-13.96 24.73 12.36 22.46552 11.23276a32 32 0 0 1 14.30536 14.29989l.49914.99732a101.74345 101.74345 0 0 1 10.72936 45.82417z" fill="#ffa100"/><path d="m424 144v62l-40 10v24h-8v-94.4l23.27-13.96z" fill="#e67a00"/><path d="m363.41639 136a19.41638 19.41638 0 0 1 -19.41639-19.41644 19.41644 19.41644 0 0 1 2.04984-8.68327l5.95016-11.90029-.00594-9.405a46.56552 46.56552 0 0 1 46.56551-46.595h1.20507a48.05439 48.05439 0 0 1 48.23584 48.00888c-.00048 4.82566-.00048 7.99112-.00048 7.99112l5.949 11.89511a19.41881 19.41881 0 0 1 2.051 8.68603 19.41879 19.41879 0 0 1 -19.41879 19.41886z" fill="#b1712c"/><path d="m232 488h256v-208h-264z" fill="#91591c"/><path d="m224 240h264v40h-264z" fill="#b1712c"/><path d="m48 496a7.99977 7.99977 0 0 1 -8-8v-16a8 8 0 0 1 16 0v16a7.99977 7.99977 0 0 1 -8 8z" fill="#ffa100"/><path d="m104 496a7.99977 7.99977 0 0 1 -8-8v-16a8 8 0 0 1 16 0v16a7.99977 7.99977 0 0 1 -8 8z" fill="#ffa100"/><path d="m144 248h88v-106.74517a32 32 0 0 0 -9.37258-22.62741l-22.62742-22.62742h-32l-26.65839 26.65839a32 32 0 0 0 -7.73045 12.50813l-21.61116 64.83348z" fill="#6173e8"/><path d="m208 56v24a24 24 0 0 1 -24 24 24 24 0 0 1 -24-24v-24z" fill="#ffceb6"/><path d="m160 56h48v-13.57781a18.42218 18.42218 0 0 0 -18.42219-18.42219 18.42223 18.42223 0 0 0 -10.21881 3.094l-19.359 12.906z" fill="#b1712c"/><path d="m168 192-8 16v80h-24l-24-88 8-24z" fill="#ffceb6"/><path d="m232 192 48 48-16 16-32-16z" fill="#ffceb6"/><path d="m201.764 381.436-41.764 106.564h-24l16-104v-96h48z" fill="#556c80"/><path d="m24 344h104v128h-104z" fill="#ffc431"/><path d="m104 368h-16v-64h-24v64h-16v-72a7.99977 7.99977 0 0 1 8-8h40a7.99977 7.99977 0 0 1 8 8z" fill="#ffa100"/><path d="m376 88 16-16 16 16h16v24a24 24 0 0 1 -24 24 24 24 0 0 1 -24-24z" fill="#ffceb6"/><path d="m328 205.33v34.67h-32v-24z" fill="#ffceb6"/><g fill="#b1712c"><path d="m360 440h16v16h-16z"/><path d="m392 440h64v16h-64z"/><path d="m408 408h48v16h-48z"/></g><path d="m232 248 16 240h-24l-64-200v-40z" fill="#62798c"/><path d="m416 208v32h-32v-24z" fill="#ffceb6"/></svg>