<svg id="flat" height="512" viewBox="0 0 512 512" width="512" xmlns="http://www.w3.org/2000/svg"><path d="m408 448 24-72v-32h32v32l24 72z" fill="#ffd873"/><path d="m440 192v7.71573a4 4 0 0 0 6.82843 2.82843l11.1127-11.1127 22.62741 22.62741-11.1127 11.1127a4 4 0 0 0 2.82843 6.82843h15.71573v32h-15.71573a4 4 0 0 0 -2.82843 6.82843l11.1127 11.1127-22.62741 22.62741-11.1127-11.1127a4 4 0 0 0 -6.82843 2.82843v15.71573h-32v-15.71573a4 4 0 0 0 -6.82843-2.82843l-11.1127 11.1127-22.62741-22.62741 11.1127-11.1127a4 4 0 0 0 -2.82843-6.82843h-15.71573v-32h15.71573a4 4 0 0 0 2.82843-6.82843l-11.1127-11.1127 22.62741-22.62741 11.1127 11.1127a4 4 0 0 0 6.82843-2.82843v-15.71573h32z" fill="#548aff"/><path d="m448 72a32 32 0 0 1 32 32v24a0 0 0 0 1 0 0h-64a0 0 0 0 1 0 0v-24a32 32 0 0 1 32-32z" fill="#ffb401"/><g fill="#d1e4ff"><path d="m176 152h16v66.597h-16z"/><path d="m86.958 169.724h16v65.269h-16z" transform="matrix(.889 -.458 .458 .889 -82.187 66.029)"/><path d="m194.588 171.682h116.299v16h-116.299z" transform="matrix(.458 -.889 .889 .458 -22.795 321.962)"/><path d="m241.258 192.321h174.758v16h-174.758z" transform="matrix(.745 -.667 .667 .745 -49.861 270.107)"/><path d="m282.397 284.082h64.898v16h-64.898z" transform="matrix(.943 -.333 .333 .943 -79.351 121.645)"/><path d="m312.995 352.971h16v61.065h-16z" transform="matrix(.25 -.968 .968 .25 -130.579 598.431)"/></g><path d="m312 344a144.02443 144.02443 0 0 1 -136 143.78q-3.975.225-8 .22a143.9545 143.9545 0 0 1 -144-144 144.835 144.835 0 0 1 1.99-24 144.01725 144.01725 0 0 1 142.01-120q3.96 0 7.88.22a143.98092 143.98092 0 0 1 136.12 143.78z" fill="#8be0e8"/><path d="m312 344a143.3023 143.3023 0 0 1 -17.41992 68.7l-22.58008-52.7-48-16v-32l-32-24v-16l55.83008-47.85a143.80729 143.80729 0 0 1 64.16992 119.85z" fill="#02c26a"/><path d="m168 352v32l-32 16v32l-37.90991 37.91a144.2403 144.2403 0 0 1 -72.10009-149.91h78.01z" fill="#02c26a"/><path d="m175.88 200.22-31.88 55.78v32h-40l-60.05-17.16a143.90313 143.90313 0 0 1 124.05-70.84q3.96 0 7.88.22z" fill="#02c26a"/><path d="m265.25 450.19a143.4339 143.4339 0 0 1 -89.25 37.59v-47.78l32-48h24z" fill="#02c26a"/><path d="m336 424h96v64h-96z" fill="#ffc431"/><path d="m360 448h16v16h-16z" fill="#ffe28f"/><path d="m392 448h16v16h-16z" fill="#ffe28f"/><path d="m336 424 96-32v32z" fill="#f78e00"/><path d="m432 448h56v40h-56z" fill="#ffb401"/><path d="m488 448-24-24h-32v24z" fill="#f78e00"/><circle cx="424" cy="248" fill="#4976f2" r="16"/><path d="m448 80a16 16 0 0 1 -16-16v-8l8-8h24v16a16 16 0 0 1 -16 16z" fill="#ffceb6"/><path d="m464 48 4.68629-4.68629a11.31372 11.31372 0 0 0 3.31371-8 11.31369 11.31369 0 0 0 -11.3137-11.31371h-12.6863a16 16 0 0 0 -16 16v16l8-8z" fill="#c47220"/><path d="m248 24h128v80h-128z" fill="#02c26a"/><path d="m248 24h24a0 0 0 0 1 0 0v8a16 16 0 0 1 -16 16h-8a0 0 0 0 1 0 0v-24a0 0 0 0 1 0 0z" fill="#67eba0"/><path d="m248 80h8a16 16 0 0 1 16 16v8a0 0 0 0 1 0 0h-24a0 0 0 0 1 0 0v-24a0 0 0 0 1 0 0z" fill="#67eba0"/><path d="m352 24h8a16 16 0 0 1 16 16v8a0 0 0 0 1 0 0h-24a0 0 0 0 1 0 0v-24a0 0 0 0 1 0 0z" fill="#67eba0" transform="matrix(-1 0 0 -1 728 72)"/><path d="m352 80h24a0 0 0 0 1 0 0v8a16 16 0 0 1 -16 16h-8a0 0 0 0 1 0 0v-24a0 0 0 0 1 0 0z" fill="#67eba0" transform="matrix(-1 0 0 -1 728 184)"/><circle cx="312" cy="64" fill="#67eba0" r="16"/><path d="m160 64 8 8-16 24h64l-16-24 8-8-24-40z" fill="#02c26a"/><path d="m172 96h24v32h-24z" fill="#c47220"/><rect fill="#548aff" height="64" rx="16" width="96" x="24" y="56"/><path d="m92 152-8-32h-24l-8 32z" fill="#c5dafa"/><path d="m40 144h64v16h-64z" fill="#e0edff"/></svg>