<svg id="flat" height="512" viewBox="0 0 512 512" width="512" xmlns="http://www.w3.org/2000/svg"><path d="m200 24h288v400h-288z" fill="#5771e5"/><path d="m200 288v42.80711a32 32 0 0 1 -1.64213 10.11929l-18.42163 55.26489a32 32 0 0 1 -14.81724 17.85371l-61.119 33.955-25.6-25.6 57.6-38.4 16-56v-40z" fill="#445496"/><path d="m104 448-8 40h-16l-16-56 14.4-9.6z" fill="#6d7eb3"/><path d="m200 464v24h56v-16l-24-16z" fill="#6d7eb3"/><path d="m200 464 32-8v-59.83362a32 32 0 0 0 -8.0829-21.25964l-55.9171-62.90674v-24h-48v20.11775a48 48 0 0 0 14.05887 33.94112l57.94113 57.94113z" fill="#445496"/><path d="m488 344h-80v80z" fill="#89a8f5"/><path d="m408 424h80v-80z" fill="#4356e6"/><path d="m272 72h144v96h-144z" fill="#5ebd92"/><path d="m272 136h144v32h-144z" fill="#51a37e"/><path d="m328 136h32v32h-32z" fill="#f5a431"/><path d="m328 72h32v64h-32z" fill="#f7c04a"/><path d="m296 96h32v16h-32z" fill="#51a37e"/><path d="m360 96h32v16h-32z" fill="#51a37e"/><g fill="#4356e6"><path d="m248 216h32v16h-32z"/><path d="m296 216h160v16h-160z"/><path d="m304 256h56v16h-56z"/><path d="m376 256h16v16h-16z"/><path d="m256 336h56v16h-56z"/><path d="m328 336h48v16h-48z"/><path d="m256 376h88v16h-88z"/><path d="m360 376h16v16h-16z"/><path d="m408 256h24v16h-24z"/><path d="m320 296h32v16h-32z"/><path d="m368 296h64v16h-64z"/></g><rect fill="#2c3e91" height="52.483" rx="8" transform="matrix(.707 -.707 .707 .707 -214.779 224.366)" width="16.001" x="155.444" y="345.203"/><rect fill="#2c3e91" height="43.788" rx="8" transform="matrix(.747 -.664 .664 .747 -172.043 204.216)" width="16" x="174.546" y="306.47"/><path d="m128 408h-104l16-64h72z" fill="#f7c04a"/><path d="m96 368h-16v-28a4 4 0 0 0 -8 0v28h-16v-28a20 20 0 0 1 40 0z" fill="#f5a431"/><path d="m296 296-8.16992 12.25a15.99071 15.99071 0 0 1 -20.46 5.42993l-47.57007-23.78a16.07166 16.07166 0 0 1 -6.15991-5.43994l-10.4401-15.65994-3.2-4.80005v24h-80v-48l-32 32v32l14.34009 14.33984a5.657 5.657 0 0 1 -4 9.66016h-10.34009v16h-16a15.99564 15.99564 0 0 1 -16-16v-65.37012a16.00775 16.00775 0 0 1 4.68994-11.31982l46.62012-46.62012a16.00775 16.00775 0 0 1 11.31982-4.68994h78.82012a16.006 16.006 0 0 1 14.71 9.7l15.04 35.1001 4.8 11.1999 32 16 10.93994-5.47a7.84847 7.84847 0 0 1 10.53 10.53l-5.46994 10.94z" fill="#ffceb6"/><path d="m227.2 244.80005-24 24-3.2-4.80005v24h-80v-48l-18.66992 18.66992-21.33008-26.66992 27.31006-27.31006a16.00775 16.00775 0 0 1 11.31982-4.68994h78.82012a16.006 16.006 0 0 1 14.71 9.7z" fill="#ed6445"/><path d="m176 184v28a12 12 0 0 1 -24 0v-28z" fill="#ffceb6"/><path d="m176 184v24h-4a11.99685 11.99685 0 0 1 -12-12v-12z" fill="#ffbfa1"/><rect fill="#de402f" height="29.063" rx="8" width="16" x="192" y="240"/><path d="m184 168 7.80065-3.90032a14.8328 14.8328 0 0 0 8.19935-13.26686v-14.83282h-36.58361a19.41638 19.41638 0 0 0 -19.41639 19.41639 19.41651 19.41651 0 0 0 2.04984 8.68328l5.95016 11.90033h24z" fill="#b36f42"/><path d="m152 168 8-8a17.88853 17.88853 0 0 0 24 8v16a16 16 0 0 1 -16 16 16 16 0 0 1 -16-16z" fill="#ffceb6"/></svg>